<svg xmlns="http://www.w3.org/2000/svg" width="33.948" height="38.295" viewBox="0 0 33.948 38.295">
  <g id="Сгруппировать_11" data-name="Сгруппировать 11" transform="translate(0.519 0.51)">
    <path id="Контур_595" data-name="Контур 595" d="M157.052,26.522c-.9-.9-.224-2.465.448-3.137s1.792-1.568,2.465-2.241c.672-.448,2.016-1.792,2.016-5.6,0,0,.448-3.361-3.361-6.049h2.913L164.67,7.7H154.139s-6.274-.224-9.186,3.585-2.913,8.514.448,11.2a9.549,9.549,0,0,0,7.17,2.016,4.156,4.156,0,0,0-.448,2.241c0,1.12,1.344,2.465,1.568,2.913,0,0-7.17,0-10.531,3.137-3.585,3.137-3.809,9.186,3.137,11.427C153.243,46.239,162.205,44,164,37.5a7.214,7.214,0,0,0-.672-4.929C161.533,30.107,157.948,27.642,157.052,26.522Zm-7.842-5.377c-2.241-2.913-3.809-8.738,0-11.2a4.279,4.279,0,0,1,5.377.9,11.149,11.149,0,0,1,2.689,8.962,3.553,3.553,0,0,1-2.241,2.913A4.854,4.854,0,0,1,149.21,21.145ZM160.189,37.5c0,1.12-.224,3.809-4.481,4.929s-11.427-.9-11.2-5.6a5.249,5.249,0,0,1,1.344-3.361c1.344-1.12,3.361-2.465,8.962-2.465a25.683,25.683,0,0,1,3.137,2.465C159.517,34.588,160.413,36.38,160.189,37.5Z" transform="translate(-140.703 -7.699)" fill="#fff" stroke="#707070" stroke-width="1"/>
    <path id="Контур_596" data-name="Контур 596" d="M157.049,16.685V13.1h-2.241v3.585H151v2.241h3.809v3.809h2.241V18.925h3.809V16.685Z" transform="translate(-127.929 -0.999)" fill="#fff" stroke="#707070" stroke-width="1"/>
  </g>
</svg>
