<svg xmlns="http://www.w3.org/2000/svg" width="44.165" height="35.49" viewBox="0 0 44.165 35.49">
  <path id="Контур_606" data-name="Контур 606" d="M9.513,9.879s6.5,8.514,17.7,9.186L30.35,10.1S40.88,9.431,42,11a14.828,14.828,0,0,0,5.6-2.016,8.244,8.244,0,0,1-3.585,4.705s3.361-.448,4.705-1.344a19.194,19.194,0,0,1-4.257,4.481A25.86,25.86,0,0,1,36.4,36.542C27.213,45.5,11.977,43.487,6.6,39.006c0,0,7.394.9,12.771-3.585,0,0-6.274-.224-8.066-5.825,0,0,3.137.224,3.585-.448,0,0-6.722-1.568-6.722-8.514a9.41,9.41,0,0,0,3.809,1.12C11.977,21.53,5.48,16.825,9.513,9.879Z" transform="translate(-4.979 -7.827)" fill="#fff" stroke="#707070" stroke-width="1"/>
</svg>
